<svg id="Layer_1" data-name="Layer 1" xmlns="http://www.w3.org/2000/svg" viewBox="0 0 195.39 199.99"><defs><style>.cls-1{fill:#e7b500;}.cls-1,.cls-2,.cls-3,.cls-4{stroke:#0c0a0a;}.cls-1,.cls-2,.cls-3,.cls-4,.cls-5,.cls-7{stroke-miterlimit:10;}.cls-1,.cls-2{stroke-width:4px;}.cls-2{fill:#ffe8db;}.cls-3{fill:#fd8d8b;stroke-width:5px;}.cls-4{fill:#95d1d6;}.cls-4,.cls-5{stroke-width:3px;}.cls-5,.cls-7{fill:none;}.cls-5{stroke:#000;}.cls-6{fill:#75e6eb;}.cls-7{stroke:#fff;stroke-width:2px;}</style></defs><title>hover_crying</title><polygon class="cls-1" points="191.72 60.71 170.05 113.78 162.96 98.22 147.89 114.7 142.44 93.91 128.33 116.81 118.22 88.03 105.53 113.57 92.93 93.72 75.94 111.65 61.94 88.4 35.69 116.21 4.56 59.86 44.98 77.07 53.16 23.64 73.85 63.58 106.39 5.55 118.91 62.16 140.76 30.48 139.9 62.72 174.79 48.64 166.31 71.3 191.72 60.71"/><path class="cls-2" d="M165,189c-39.56,15.73-73.61,5.89-107.88-1.83-1.77-.41-3.55-.79-5.33-1.18-36.09-7.79-9.25-64.87-9.25-64.87s.53,1,.43-5.52L69.25,87.8l14,23.25,17-17.93L112.84,113l12.69-25.54,10.11,28.78,14.11-22.9,5.45,20.79,15.07-16.48,7.09,15.56c-1.65,4,.23,9,.23,9C193.45,171.29,165,189,165,189Z" transform="translate(-7.31 0.6)"/><line class="cls-3" x1="62.6" y1="126.71" x2="91.28" y2="127.48"/><line class="cls-3" x1="118.27" y1="128.19" x2="146.95" y2="128.96"/><polygon class="cls-4" points="65.36 128.66 63.73 190.14 83.51 193.85 87.29 129.25 65.36 128.66"/><polygon class="cls-4" points="143.49 132.06 141.3 193.52 121.33 196 121.56 131.28 143.49 132.06"/><path class="cls-5" d="M98.67,187.46s11.65-12.7,22.75-.92" transform="translate(-7.31 0.6)"/><polygon class="cls-6" points="76.52 130.84 76.62 190.92 82.13 192.19 85.61 130.46 76.52 130.84"/><polyline class="cls-6" points="122.77 132.31 123.17 194.74 130.97 193.36 129.75 133.1 123.47 132.38"/><path class="cls-7" d="M89,130s-5.07,7.2-3,12.06,3.75,12.6,1.62,14.81-6.61,6.25-3.7,12.37,2.52,11.09,1.59,11.93-1.72,7.6.15,9.52" transform="translate(-7.31 0.6)"/><path class="cls-7" d="M134.88,132.64s-4.71,4.94-1.91,8.47,5.07,6.9,3.36,10.29-4.88,6.42-2.58,10.27,3.9,8.84,2.06,12.6-4.87,6.46-1.23,10.8a7,7,0,0,1,.54,8.55" transform="translate(-7.31 0.6)"/></svg>