<svg id="Layer_1" data-name="Layer 1" xmlns="http://www.w3.org/2000/svg" viewBox="0 0 194.57 200.28"><defs><style>.cls-1{fill:#e7b500;}.cls-1,.cls-2,.cls-3,.cls-4,.cls-5,.cls-6{stroke:#0c0a0a;stroke-miterlimit:10;}.cls-1,.cls-2{stroke-width:4px;}.cls-2,.cls-4{fill:#ffe8db;}.cls-3,.cls-5{fill:none;}.cls-3{stroke-width:5px;}.cls-4{stroke-width:3px;}.cls-5,.cls-6{stroke-width:2px;}.cls-6{fill:#ff7995;}</style></defs><title>hover_tired</title><polygon class="cls-1" points="190.59 67.72 164.46 118.74 158.73 102.63 142.31 117.75 138.65 96.58 122.63 118.18 115.03 88.64 100.2 113.01 89.34 92.16 70.89 108.57 58.92 84.2 30.39 109.67 4.19 50.86 42.99 71.47 55.71 18.93 72.91 60.49 110.29 5.46 117.92 62.93 142.4 33.23 138.79 65.28 174.75 54.24 164.37 76.09 190.59 67.72"/><path class="cls-2" d="M158,195.45c-40.76,12.28-73.85-.44-107.33-11.06l-5.21-1.63c-35.28-10.85-3.66-65.42-3.66-65.42s.44,1.08.9-5.47L71.24,86.41l12,24.36,18.46-16.4,10.86,20.85,14.82-24.37L135,120.39l16-21.6L154.62,120l16.43-15.12L176.78,121c-2,3.87-.54,9-.54,9C187.84,180.22,158,195.45,158,195.45Z" transform="translate(-12.32 -2.21)"/><line class="cls-3" x1="52.71" y1="124.91" x2="88.2" y2="128.91"/><path class="cls-4" d="M72.77,137.1l21.44,2.41" transform="translate(-12.32 -2.21)"/><line class="cls-3" x1="104.83" y1="130.79" x2="140.33" y2="134.79"/><path class="cls-4" d="M124.9,143l21.43,2.42" transform="translate(-12.32 -2.21)"/><line class="cls-5" x1="56.73" y1="151.62" x2="48.3" y2="156.26"/><line class="cls-5" x1="65.17" y1="153.94" x2="56.73" y2="158.58"/><line class="cls-5" x1="123.3" y1="161.45" x2="114.86" y2="166.09"/><line class="cls-5" x1="131.73" y1="163.77" x2="123.3" y2="168.41"/><polygon class="cls-6" points="74.1 177.43 90.13 180.03 88.23 183.68 74.1 182.42 74.1 177.43"/></svg>