<svg id="Layer_1" data-name="Layer 1" xmlns="http://www.w3.org/2000/svg" viewBox="0 0 193.56 198.55"><defs><style>.cls-1{fill:#e7b500;}.cls-1,.cls-2,.cls-3,.cls-4{stroke:#0c0a0a;stroke-miterlimit:10;}.cls-1,.cls-2{stroke-width:4px;}.cls-2{fill:#ffe8db;}.cls-3{fill:none;stroke-width:5px;}.cls-4,.cls-5{fill:#ff7995;}.cls-4{stroke-width:3px;}</style></defs><title>hover_cheered</title><polygon class="cls-1" points="190.45 47.97 176.61 103.6 167.37 89.22 154.81 107.68 146.44 87.89 135.75 112.57 121.63 85.54 112.73 112.64 97.41 94.81 83.17 114.98 65.98 93.97 43.99 125.26 5.1 73.96 47.58 85.2 48.01 31.14 74.21 67.7 98.1 5.61 118.6 59.84 135.68 25.35 139.45 57.38 171.96 38.45 166.82 62.09 190.45 47.97"/><path class="cls-2" d="M183,183.68c-36.9,21.23-72,16.37-107,13.65-1.81-.15-3.63-.28-5.45-.41-36.83-2.54-18.45-62.87-18.45-62.87s.68,1-.37-5.52l22-31.29,17.19,21,14.24-20.17,15.32,17.83,8.89-27.1,14.13,27,10.69-24.68L162.53,111l12.55-18.47,9.25,14.39c-1.05,4.22,1.52,8.88,1.52,8.88C208.58,162.07,183,183.68,183,183.68Z" transform="translate(-7.72 -3.26)"/><polyline class="cls-3" points="76.81 143.57 90.32 130.09 102.12 142.1"/><polyline class="cls-3" points="123.24 138.11 136.75 124.62 148.55 136.64"/><path class="cls-4" d="M107.14,176.84s16.41,4.13,27.75-1.22,7.88,3.38,7,6.1-25.5,8.25-33.28,3S107.14,176.84,107.14,176.84Z" transform="translate(-7.72 -3.26)"/><ellipse class="cls-5" cx="80.8" cy="160.87" rx="5.77" ry="2.1"/><ellipse class="cls-5" cx="148.55" cy="155.06" rx="5.77" ry="2.1"/></svg>