<svg id="Layer_1" data-name="Layer 1" xmlns="http://www.w3.org/2000/svg" viewBox="0 0 195.93 198.03"><defs><style>.cls-1{fill:#e7b500;}.cls-1,.cls-2,.cls-3,.cls-4{stroke:#0c0a0a;stroke-miterlimit:10;}.cls-1,.cls-2,.cls-4{stroke-width:4px;}.cls-2{fill:#ffe8db;}.cls-3,.cls-4{fill:none;}.cls-3{stroke-width:7px;}.cls-5{fill:#0c0a0a;}</style></defs><title>hover_bored</title><polygon class="cls-1" points="187.7 39.59 178.85 96.23 168.37 82.72 157.5 102.23 147.4 83.26 138.95 108.79 122.48 83.12 116.02 110.89 99.18 94.49 86.79 115.85 67.8 96.45 48.67 129.57 5.38 81.91 48.69 89.34 44.33 35.47 73.67 69.55 91.95 5.59 117.18 57.78 131.14 21.92 137.74 53.49 168.44 31.75 165.42 55.76 187.7 39.59"/><path class="cls-2" d="M190,176.57c-34.87,24.42-70.28,22.7-105.4,23.09-1.81,0-3.64.05-5.46.08-36.91.74-24-61-24-61s.76.89-.86-5.47l19.13-33.11,19,19.39,12.4-21.36,16.84,16.41,6.45-27.78,16.47,25.67L153,87l10.09,19L174,86.43l10.49,13.51c-.68,4.3,2.3,8.72,2.3,8.72C213.54,152.78,190,176.57,190,176.57Z" transform="translate(-5.64 -3.71)"/><line class="cls-3" x1="74.1" y1="138.84" x2="100.22" y2="133.39"/><line class="cls-3" x1="132.09" y1="125" x2="159.62" y2="119.25"/><path class="cls-4" d="M113.34,172.89s31.08-9.37,33.79-8.79" transform="translate(-5.64 -3.71)"/><line class="cls-4" x1="140.57" y1="155.98" x2="140.66" y2="166.02"/><circle class="cls-5" cx="90.73" cy="147.37" r="3.57"/><circle class="cls-5" cx="147.51" cy="135.83" r="3.57"/></svg>