<svg id="Layer_1" data-name="Layer 1" xmlns="http://www.w3.org/2000/svg" viewBox="0 0 194.68 200.28"><defs><style>.cls-1{fill:#e7b500;}.cls-1,.cls-2,.cls-3,.cls-4{stroke:#0c0a0a;stroke-miterlimit:10;}.cls-1,.cls-2{stroke-width:4px;}.cls-2{fill:#ffe8db;}.cls-3{fill:none;stroke-width:5px;}.cls-4{fill:#ff7995;stroke-width:3px;}</style></defs><title>hover_dizzy</title><polygon class="cls-1" points="190.73 67.22 164.92 118.41 159.09 102.33 142.76 117.56 138.97 96.41 123.09 118.11 115.29 88.62 100.62 113.08 89.63 92.3 71.28 108.82 59.16 84.54 30.79 110.18 4.22 51.54 43.15 71.9 55.53 19.29 73 60.74 110.03 5.47 118.03 62.89 142.32 33.04 138.91 65.11 174.8 53.84 164.56 75.76 190.73 67.22"/><path class="cls-2" d="M156.57,195.63c-40.68,12.54-73.85,0-107.39-10.37-1.74-.55-3.48-1.07-5.22-1.6-35.36-10.63-4.08-65.4-4.08-65.4s.44,1.08.86-5.47L69.11,87.15l12.12,24.28L99.58,94.91l11,20.78,14.67-24.46,7.8,29.49L148.92,99l3.79,21.15L169,104.94,174.87,121c-2,3.88-.48,9-.48,9C186.31,180.22,156.57,195.63,156.57,195.63Z" transform="translate(-9.95 -2.61)"/><path class="cls-3" d="M75.37,131.49s10.28.22,6.94,4.91-14.36,3-12.14-3.4,4.3-9.49,9.32-7.21S94.26,137.42,90,140.6s-7.76,5-12.75,4.47-8.9,1.24-10-1.06" transform="translate(-9.95 -2.61)"/><path class="cls-3" d="M139.44,138.27s-10.55-.17-7.3,4.76,14.6,3.64,12.57-3-4-9.89-9.27-7.74S119.86,143.63,124.12,147s7.77,5.42,12.9,5.07,9.08,1.61,10.27-.71" transform="translate(-9.95 -2.61)"/><path class="cls-4" d="M124.19,186.13c-.6,3.92-12,3-23,1.33s-21.68-4.07-21.08-8,12.32-7.86,23.24-6.2S124.79,182.21,124.19,186.13Z" transform="translate(-9.95 -2.61)"/></svg>