<svg id="Layer_1" data-name="Layer 1" xmlns="http://www.w3.org/2000/svg" viewBox="0 0 193.96 198.74"><defs><style>.cls-1{fill:#e7b500;}.cls-1,.cls-2,.cls-3,.cls-4{stroke:#0c0a0a;stroke-miterlimit:10;}.cls-1,.cls-2,.cls-4{stroke-width:4px;}.cls-2,.cls-3{fill:#ffe8db;}.cls-3{stroke-width:6px;}.cls-4,.cls-5{fill:#ff7995;}</style></defs><title>hover_happy</title><polygon class="cls-1" points="190.79 49.46 176.06 104.86 167.04 90.33 154.19 108.58 146.14 88.67 135.05 113.17 121.37 85.91 112.03 112.86 97.01 94.78 82.44 114.72 65.59 93.44 43.09 124.37 5.04 72.44 47.33 84.37 48.64 30.33 74.25 67.31 99.14 5.61 118.76 60.16 136.4 25.96 139.65 58.04 172.46 39.64 166.94 63.2 190.79 49.46"/><path class="cls-2" d="M111.63,202.67l24.5-1A165.33,165.33,0,0,1,111.63,202.67Z" transform="translate(-6 -6)"/><path class="cls-2" d="M179.47,187.64a117.3,117.3,0,0,1-43.31,14l3-22.8-33.3,3.37,5.73,20.46c-13.21-.35-26.31-1.89-39.39-3.11-1.81-.18-3.62-.34-5.44-.5C30,195.93,49.37,135.9,49.37,135.9s.66,1-.28-5.53l22.5-30.93,16.85,21.28L103,100.78l15,18.08,9.33-26.95,13.68,27.26,11.09-24.5,8.05,19.92L173,96.33l9,14.53c-1.13,4.21,1.37,8.91,1.37,8.91C205.41,166.45,179.47,187.64,179.47,187.64Z" transform="translate(-6 -6)"/><polyline class="cls-3" points="71.3 123.9 96.05 145.54 72.19 160.46"/><polyline class="cls-3" points="146.1 118.14 124.28 143.29 150.29 154.94"/><polygon class="cls-4" points="133.2 172.84 130.16 195.64 130.13 195.65 105.63 196.67 99.9 176.21 133.2 172.84"/><ellipse class="cls-5" cx="79.75" cy="175.76" rx="7.66" ry="3.21" transform="translate(-23.32 2.94) rotate(-5.79)"/><ellipse class="cls-5" cx="156.61" cy="167.97" rx="7.66" ry="3.21" transform="translate(-22.14 10.65) rotate(-5.79)"/></svg>