<svg id="Layer_1" data-name="Layer 1" xmlns="http://www.w3.org/2000/svg" viewBox="0 0 193.55 198.55"><defs><style>.cls-1{fill:#e7b500;}.cls-1,.cls-2,.cls-3,.cls-5{stroke:#0c0a0a;}.cls-1,.cls-2,.cls-3,.cls-5,.cls-6{stroke-miterlimit:10;}.cls-1,.cls-2{stroke-width:4px;}.cls-2{fill:#ffe8db;}.cls-3,.cls-5,.cls-6{fill:none;}.cls-3{stroke-width:5px;}.cls-4{fill:#0c0a0a;}.cls-5{stroke-width:3px;}.cls-6{stroke:#fff;stroke-width:2px;}</style></defs><title>hover_cool</title><polygon class="cls-1" points="190.45 47.95 176.62 103.58 167.37 89.2 154.82 107.67 146.44 87.88 135.76 112.56 121.63 85.53 112.74 112.63 97.42 94.81 83.19 114.98 65.99 93.98 44 125.28 5.1 73.98 47.58 85.21 48 31.16 74.21 67.71 98.08 5.61 118.59 59.83 135.67 25.34 139.45 57.37 171.96 38.43 166.82 62.07 190.45 47.95"/><path class="cls-2" d="M180.15,184c-36.9,21.24-72,16.39-107,13.68-1.81-.15-3.63-.28-5.44-.41-36.83-2.53-18.47-62.87-18.47-62.87s.68,1-.37-5.52l22-31.29,17.2,21L102.26,98.4l15.32,17.82,8.89-27.09,14.13,27,10.68-24.69,8.38,19.79,12.55-18.47,9.25,14.38c-1.05,4.23,1.52,8.89,1.52,8.89C205.73,162.37,180.15,184,180.15,184Z" transform="translate(-4.84 -3.59)"/><line class="cls-3" x1="42.03" y1="140.49" x2="67.9" y2="139.91"/><line class="cls-2" x1="181.42" y1="122.74" x2="160.81" y2="128.95"/><line class="cls-2" x1="109.55" y1="136.13" x2="130.41" y2="133.67"/><rect class="cls-4" x="72.61" y="132.24" width="41.81" height="18" rx="3.75" transform="translate(-20.75 8.34) rotate(-6.73)"/><rect class="cls-4" x="130.89" y="125.51" width="36.19" height="18" rx="4.59" transform="translate(-19.58 14.8) rotate(-6.73)"/><path class="cls-5" d="M107.44,180.52s29.44,1.43,35.38-4.18" transform="translate(-4.84 -3.59)"/><line class="cls-6" x1="75.8" y1="144.97" x2="86.49" y2="133.14"/><line class="cls-6" x1="89.36" y1="143.37" x2="98.84" y2="133.79"/><line class="cls-6" x1="138.12" y1="135.54" x2="143.71" y2="127.19"/><line class="cls-6" x1="148.85" y1="135.22" x2="153.06" y2="126.09"/></svg>