<svg id="Layer_1" data-name="Layer 1" xmlns="http://www.w3.org/2000/svg" viewBox="0 0 192.76 198.24"><defs><style>.cls-1{fill:#e7b500;}.cls-1,.cls-2,.cls-3,.cls-4{stroke:#0c0a0a;}.cls-1,.cls-2,.cls-3,.cls-4,.cls-5,.cls-6{stroke-miterlimit:10;}.cls-1,.cls-2{stroke-width:4px;}.cls-2{fill:#ffe8db;}.cls-3,.cls-4,.cls-5,.cls-6{fill:none;}.cls-3{stroke-width:6px;}.cls-4,.cls-5{stroke-width:2px;}.cls-5{stroke:#fd8d8b;}.cls-6{stroke:#000;stroke-width:3px;}</style></defs><title>hover_shy</title><polygon class="cls-1" points="189.78 45.47 177.44 101.45 167.81 87.32 155.76 106.11 146.85 86.56 136.84 111.52 121.98 84.88 113.83 112.2 98.03 94.79 84.34 115.34 66.59 94.81 45.45 126.67 5.19 76.44 47.95 86.53 46.93 32.48 74.11 68.32 96.31 5.61 118.27 59.26 134.42 24.33 139.05 56.25 171.04 36.45 166.53 60.22 189.78 45.47"/><path class="cls-2" d="M181.86,180.54c-36.32,22.22-71.54,18.31-106.62,16.53-1.82-.1-3.64-.18-5.46-.26-36.88-1.55-20.13-62.35-20.13-62.35s.7.94-.52-5.51L70.27,97.08,88,117.61l13.68-20.55,15.8,17.41,8.16-27.32,14.85,26.64,10-25,8.9,19.56,12.06-18.8,9.63,14.13c-.94,4.25,1.75,8.84,1.75,8.84C206.86,158.25,181.86,180.54,181.86,180.54Z" transform="translate(-3.68 -2.27)"/><path class="cls-3" d="M73.74,143.08c2.28,0,27.54-4,27.54-4" transform="translate(-3.68 -2.27)"/><path class="cls-4" d="M74.76,150.08c2.28,0,27.54-4,27.54-4" transform="translate(-3.68 -2.27)"/><path class="cls-3" d="M127.55,135.27c2.28,0,27.54-4,27.54-4" transform="translate(-3.68 -2.27)"/><path class="cls-4" d="M128.55,142.18c2.28,0,27.54-4,27.54-4" transform="translate(-3.68 -2.27)"/><line class="cls-5" x1="75.27" y1="166.26" x2="84.51" y2="156.77"/><line class="cls-5" x1="83.75" y1="165.03" x2="92.98" y2="155.54"/><line class="cls-5" x1="92.22" y1="163.8" x2="101.45" y2="154.31"/><line class="cls-5" x1="100.69" y1="162.57" x2="109.93" y2="153.08"/><line class="cls-5" x1="109.17" y1="161.34" x2="118.4" y2="151.85"/><line class="cls-5" x1="117.64" y1="160.11" x2="126.87" y2="150.62"/><line class="cls-5" x1="126.11" y1="158.88" x2="135.35" y2="149.39"/><line class="cls-5" x1="134.59" y1="157.65" x2="143.82" y2="148.16"/><line class="cls-5" x1="143.06" y1="156.42" x2="152.29" y2="146.93"/><line class="cls-5" x1="151.53" y1="155.19" x2="160.77" y2="145.7"/><path class="cls-6" d="M101.28,184.39s20.55,9.18,36.11-2.07" transform="translate(-3.68 -2.27)"/><path class="cls-6" d="M137.39,177.54s-3.1,4.13,3.37,8" transform="translate(-3.68 -2.27)"/></svg>