<svg id="Layer_1" data-name="Layer 1" xmlns="http://www.w3.org/2000/svg" viewBox="0 0 270.89 514.6"><defs><style>.cls-1{fill:#e7b500;}.cls-1,.cls-10,.cls-12,.cls-15,.cls-2,.cls-3,.cls-4,.cls-5,.cls-6,.cls-7,.cls-8,.cls-9{stroke:#0c0a0a;}.cls-1,.cls-10,.cls-12,.cls-13,.cls-15,.cls-16,.cls-2,.cls-3,.cls-4,.cls-5,.cls-6,.cls-7,.cls-8,.cls-9{stroke-miterlimit:10;}.cls-1,.cls-3,.cls-7{stroke-width:4px;}.cls-12,.cls-13,.cls-16,.cls-2{fill:none;}.cls-15,.cls-3,.cls-5{fill:#ffe8db;}.cls-4{fill:#89d4de;}.cls-5{stroke-width:5px;}.cls-6{fill:#008aad;}.cls-10,.cls-12,.cls-13,.cls-15,.cls-6,.cls-8{stroke-width:3px;}.cls-7,.cls-8{fill:#783702;}.cls-9{fill:#883800;}.cls-16,.cls-9{stroke-width:2px;}.cls-10{fill:#cf1800;}.cls-11{fill:#0c0a0a;}.cls-13{stroke:#fff;}.cls-14{font-size:75.91px;fill:#f3f3f3;font-family:KozGoPr6N-Regular-90ms-RKSJ-H, Kozuka Gothic Pr6N;}.cls-16{stroke:#fd8d8b;}</style></defs><title>hover_relaxed</title><polygon class="cls-1" points="235.62 58.44 215.37 112.07 207.87 96.7 193.24 113.57 187.24 92.94 173.74 116.2 162.87 87.7 150.87 113.57 137.74 94.07 121.24 112.44 106.62 89.57 81.12 118.07 48.5 62.57 89.37 78.7 96.12 25.07 117.87 64.44 148.85 5.57 162.87 61.82 183.87 29.57 183.87 61.82 218.37 46.82 210.5 69.7 235.62 58.44"/><path class="cls-2" d="M153.87,188.2c-4.5-.38-15.75,1.5-11.81-16.5,0,0,9.18-3.76,15.56,0S158.37,188.57,153.87,188.2Z"/><path class="cls-3" d="M215.84,121.07s-2-4.93-.47-9l-7.5-15.37-14.63,16.87-6-20.63-13.5,23.26L162.87,87.7l-12,25.87-13.13-19.5-16.5,18.37L106.62,89.57l-25.5,28.5c.28,6.56-.28,5.53-.28,5.53s-25.31,57.77,11,64.6c1.79.34,3.58.68,5.36,1,34.46,6.8,68.76,15.73,107.89-1C205.06,188.2,233,169.73,215.84,121.07ZM174.2,141.75a6,6,0,0,1-6,6H129.55a6,6,0,0,1-6-6V127.11a6,6,0,0,1,6-6h38.61a6,6,0,0,1,6,6Z"/><path class="cls-4" d="M174.2,127.11v14.64a6,6,0,0,1-6,6H129.55a6,6,0,0,1-6-6V127.11a6,6,0,0,1,6-6h38.61A6,6,0,0,1,174.2,127.11Z"/><path class="cls-5" d="M223.29,253.21c-.72,6.94-1.78,14.62-3.23,23.11l-2,12.66L82.24,291.23c-5.68-15.58-8.93-28.83-10.42-40.09h0c-7.07-53.33,25.35-61.89,25.35-61.89,34.46,6.8,68.76,15.73,107.89-1C205.06,188.2,230.41,184.8,223.29,253.21Z"/><path class="cls-6" d="M264.76,286.16h0a55.77,55.77,0,0,1-6.73,8.71c-27.24,15.9-62.89,21.63-98.91,21.74-29.87.1-60-3.67-85.75-8.69-37.14-7.24-65.21-17.1-70.44-21.77-12.66-11.31,62.51-33.2,68.89-35,1.49,11.26,4.74,24.51,10.42,40.09L218.09,289l2-12.66c1.45-8.49,2.51-16.17,3.23-23.11.75,0,38.17,2.14,44.58,13.55C271.31,272.88,268.32,280.43,264.76,286.16Z"/><path class="cls-2" d="M72.25,251l-.43.12h0"/><path class="cls-2" d="M223.29,253.21h0"/><path class="cls-7" d="M232.64,505.28l-8.09-195.21M2.93,286.16S-2.5,501.32,35.37,509.94c7.27,1.66,19.86,2.45,35.44,2.63l2.56-204.64C36.23,300.69,8.16,290.83,2.93,286.16Z"/><path class="cls-8" d="M261.5,501.32s-.45,1.74-6.76,2.25l-2.66.22c-3.51.28-10.32.82-19.44,1.49-16.89,1.25-41.73,3-68.3,4.44l-1-35.79,35.12-1.86V370.82l-37.89.7-1.48-54.9c36-.11,71.67-5.84,98.91-21.74a55.77,55.77,0,0,0,6.73-8.71C264.79,287.93,268.21,499.08,261.5,501.32Z"/><path class="cls-9" d="M164.34,509.72c-32.32,1.78-67.21,3.17-93.53,2.85l2.56-204.64c25.76,5,55.88,8.79,85.75,8.69l1.48,54.9L96.87,372.7l2.25,104.62,64.25-3.39Z"/><polygon class="cls-10" points="198.49 370.82 198.49 472.07 163.37 473.93 99.12 477.32 96.87 372.7 160.6 371.52 198.49 370.82"/><circle class="cls-11" cx="119.37" cy="236.71" r="3"/><circle class="cls-11" cx="179" cy="237.82" r="3"/><path class="cls-12" d="M186,139.75c-1.78.16,19.1,0,19.1,0"/><path class="cls-12" d="M97.28,139.75c-1.79.16,19.09,0,19.09,0"/><path class="cls-13" d="M28.62,283.88s.38-4.44,13.5,0,22.5,2.87,23.63-2"/><path class="cls-13" d="M98.75,303.7a17.15,17.15,0,0,1,18.83-2.25c10.79,5.25,20-.73,23.66-1.87s2.88,0,12.26,4.12,20.7-4.53,20.7-4.53"/><path class="cls-13" d="M230.75,279.32s-1.5-2.25,11.25,0,18.75-1,18.75-1"/><text class="cls-14" transform="translate(112.81 449.69)">水</text><path class="cls-15" d="M140.2,176.26a2.44,2.44,0,0,0-3.85-.65c-2.53,1.83-4.31,6.79,3.24,6.56s9.37-2.48,9.37-2.48,9.71,5.11,13.18.61-1.13-7.41-4.55-6.66"/><line class="cls-16" x1="111.12" y1="168.03" x2="121.62" y2="159.97"/><line class="cls-16" x1="119.37" y1="168.03" x2="129.87" y2="159.97"/><line class="cls-16" x1="127.62" y1="168.03" x2="138.12" y2="159.97"/><line class="cls-16" x1="135.87" y1="168.03" x2="146.37" y2="159.97"/><line class="cls-16" x1="144.12" y1="168.03" x2="154.62" y2="159.97"/><line class="cls-16" x1="152.36" y1="168.03" x2="162.86" y2="159.97"/><line class="cls-16" x1="160.61" y1="168.03" x2="171.11" y2="159.97"/><line class="cls-16" x1="168.86" y1="168.03" x2="179.36" y2="159.97"/><line class="cls-16" x1="177.11" y1="168.03" x2="187.61" y2="159.97"/><path class="cls-12" d="M24,240.82s7.13-5.45,0-16.32-18.75-17.78-8.25-26.7S28.92,178,24,172"/><path class="cls-12" d="M245.72,247.75s10.82-9,2.57-22.5.27-25.88.27-25.88"/><path class="cls-12" d="M63,266.87s-17.25-13.87-9.37-21,3.66-18.75,3.66-18.75"/><path class="cls-12" d="M232.64,197.8s-2-4.05,5.53-12.3-4.13-8.69,0-17.47,8.92-12.91,2.58-17.41"/></svg>