<svg id="Layer_1" data-name="Layer 1" xmlns="http://www.w3.org/2000/svg" viewBox="0 0 195.36 199.79"><defs><style>.cls-1{fill:#e7b500;}.cls-1,.cls-2,.cls-3,.cls-4{stroke:#0c0a0a;stroke-miterlimit:10;}.cls-1,.cls-2,.cls-4{stroke-width:4px;}.cls-2{fill:#ffe8db;}.cls-3,.cls-4{fill:none;}.cls-3{stroke-width:5px;}</style></defs><title>maru_bored</title><polygon class="cls-1" points="191.79 58.44 171.54 112.07 164.04 96.7 149.41 113.57 143.41 92.94 129.91 116.2 119.04 87.7 107.04 113.57 93.91 94.07 77.41 112.44 62.79 89.57 37.29 118.07 4.67 62.57 45.54 78.7 52.29 25.07 74.04 64.44 105.02 5.57 119.04 61.82 140.04 29.57 140.04 61.82 174.54 46.82 166.67 69.7 191.79 58.44"/><path class="cls-2" d="M161,187.85c-39.13,16.77-73.44,7.84-107.9,1-1.78-.36-3.57-.7-5.35-1-36.29-6.83-11-64.6-11-64.6s.56,1,.29-5.53l25.5-28.5,14.62,22.87,16.5-18.37,13.13,19.5,12-25.87,10.87,28.5,13.5-23.26,6,20.63,14.63-16.87,7.5,15.37c-1.55,4.07.46,9,.46,9C188.89,169.38,161,187.85,161,187.85Z" transform="translate(0.28 0.35)"/><line class="cls-3" x1="60.28" y1="132.35" x2="86.97" y2="132.35"/><line class="cls-4" x1="119.87" y1="130.67" x2="148" y2="130.67"/><path class="cls-4" d="M86.69,168.56s32.34-2.81,34.87-1.68" transform="translate(0.28 0.35)"/><line class="cls-4" x1="121.84" y1="162.73" x2="119.87" y2="172.57"/></svg>