<svg id="Layer_1" data-name="Layer 1" xmlns="http://www.w3.org/2000/svg" viewBox="0 0 195.36 199.79"><defs><style>.cls-1{fill:#e7b500;}.cls-1,.cls-2,.cls-3,.cls-4{stroke:#0c0a0a;stroke-miterlimit:10;}.cls-1,.cls-2{stroke-width:4px;}.cls-2{fill:#ffe8db;}.cls-3,.cls-4{fill:none;}.cls-3{stroke-width:5px;}.cls-4{stroke-width:3px;}</style></defs><title>maru_dizzy</title><polygon class="cls-1" points="191.79 58.44 171.54 112.07 164.04 96.7 149.41 113.57 143.41 92.94 129.91 116.2 119.04 87.7 107.04 113.57 93.91 94.07 77.41 112.44 62.79 89.57 37.29 118.07 4.67 62.57 45.54 78.7 52.29 25.07 74.04 64.44 105.02 5.57 119.04 61.82 140.04 29.57 140.04 61.82 174.54 46.82 166.67 69.7 191.79 58.44"/><path class="cls-2" d="M162.33,189.57c-39.13,16.77-73.43,7.84-107.89,1-1.78-.36-3.57-.7-5.36-1-36.28-6.83-11-64.6-11-64.6s.56,1,.28-5.53l25.5-28.5,14.62,22.87L95,95.44l13.13,19.5,12-25.87L131,117.57l13.5-23.26,6,20.63,14.63-16.87,7.5,15.37c-1.54,4.07.47,9,.47,9C190.27,171.1,162.33,189.57,162.33,189.57Z" transform="translate(-1.1 -1.37)"/><path class="cls-3" d="M74.8,134.38s10.25-.87,7.42,4.14-14,4.52-12.43-2.1,3.27-9.89,8.5-8.15,15.92,10,12,13.62-7.19,5.79-12.21,5.79-8.72,2.18-10,0" transform="translate(-1.1 -1.37)"/><path class="cls-3" d="M139.22,134.34s-10.5.95-6.75,5.51,14.9,2.08,12.18-4.34-5.06-9.4-10-6.71-14.29,12.94-9.69,15.89,8.3,4.56,13.37,3.67,9.19.65,10.13-1.79" transform="translate(-1.1 -1.37)"/><path class="cls-4" d="M77.76,173.13s5.25-2.44,6.56-1.5,3.19,3.37,5.06,2.43,6-.75,6.56-1.22,6,0,6,0l2.16,2.72,3.66-1.12,3.93-2.06,3.38,2.06,5.25-1.88,3.75,3,5.25-4.15,1.5,4.15,6-2.07" transform="translate(-1.1 -1.37)"/></svg>