<svg id="Layer_1" data-name="Layer 1" xmlns="http://www.w3.org/2000/svg" viewBox="0 0 195.36 199.79"><defs><style>.cls-1{fill:#e7b500;}.cls-1,.cls-2,.cls-3,.cls-4{stroke:#0c0a0a;stroke-miterlimit:10;}.cls-1,.cls-2,.cls-4{stroke-width:4px;}.cls-2{fill:#ffe8db;}.cls-3,.cls-4{fill:#fd8d8b;}.cls-3{stroke-width:3px;}</style></defs><title>maru_inlove</title><polygon class="cls-1" points="191.79 58.44 171.54 112.07 164.04 96.7 149.41 113.57 143.41 92.94 129.91 116.2 119.04 87.7 107.04 113.57 93.91 94.07 77.41 112.44 62.79 89.57 37.29 118.07 4.67 62.57 45.54 78.7 52.29 25.07 74.04 64.44 105.02 5.57 119.04 61.82 140.04 29.57 140.04 61.82 174.54 46.82 166.67 69.7 191.79 58.44"/><path class="cls-2" d="M162.33,189.55c-39.13,16.77-73.43,7.84-107.89,1-1.78-.36-3.57-.7-5.36-1-36.28-6.83-11-64.6-11-64.6s.56,1,.28-5.53l25.5-28.5,14.62,22.87L95,95.42l13.13,19.5,12-25.87L131,117.55l13.5-23.26,6,20.63,14.63-16.87,7.5,15.37c-1.54,4.07.47,9,.47,9C190.27,171.08,162.33,189.55,162.33,189.55Z" transform="translate(-1.1 -1.35)"/><path class="cls-3" d="M77.75,137.36s-1.7-6.51-7.77-6.73-9,10,.23,16.33,10,9.25,18.53-4.39S81.65,121.21,77.75,137.36Z" transform="translate(-1.1 -1.35)"/><path class="cls-3" d="M129.1,137.34s-1.7-6.5-7.75-6.72-9,9.94.22,16.31,9.94,9.23,18.51-4.38S133,121.22,129.1,137.34Z" transform="translate(-1.1 -1.35)"/><path class="cls-4" d="M88.32,175.25s20.63,1.31,34.32,0" transform="translate(-1.1 -1.35)"/></svg>