<svg id="Layer_1" data-name="Layer 1" xmlns="http://www.w3.org/2000/svg" viewBox="0 0 195.36 199.79"><defs><style>.cls-1{fill:#e7b500;}.cls-1,.cls-2,.cls-3,.cls-4{stroke:#0c0a0a;}.cls-1,.cls-2,.cls-3,.cls-4,.cls-5,.cls-6{stroke-miterlimit:10;}.cls-1,.cls-2{stroke-width:4px;}.cls-2{fill:#ffe8db;}.cls-3{fill:#fd8d8b;stroke-width:5px;}.cls-4{fill:#95d1d6;}.cls-4,.cls-6{stroke-width:3px;}.cls-5,.cls-6{fill:none;}.cls-5{stroke:#fff;stroke-width:2px;}.cls-6{stroke:#000;}</style></defs><title>maru_crying</title><polygon class="cls-1" points="191.79 58.44 171.54 112.07 164.04 96.7 149.41 113.57 143.41 92.94 129.91 116.2 119.04 87.7 107.04 113.57 93.91 94.07 77.41 112.44 62.79 89.57 37.29 118.07 4.67 62.57 45.54 78.7 52.29 25.07 74.04 64.44 105.02 5.57 119.04 61.82 140.04 29.57 140.04 61.82 174.54 46.82 166.67 69.7 191.79 58.44"/><path class="cls-2" d="M163,187.66c-39.13,16.77-73.44,7.84-107.9,1-1.78-.36-3.57-.7-5.35-1-36.29-6.83-11-64.6-11-64.6s.56,1,.29-5.53L64.51,89,79.13,111.9l16.5-18.37L108.76,113l12-25.87,10.87,28.5,13.5-23.26,6,20.63,14.63-16.87,7.5,15.37c-1.55,4.07.46,9,.46,9C190.89,169.19,163,187.66,163,187.66Z" transform="translate(-1.72 0.54)"/><line class="cls-3" x1="64.47" y1="127.85" x2="93.16" y2="127.85"/><line class="cls-3" x1="120.16" y1="127.85" x2="148.84" y2="127.85"/><polygon class="cls-4" points="67.28 129.73 67.28 191.23 87.16 194.42 89.22 129.73 67.28 129.73"/><polygon class="cls-4" points="145.47 131.05 144.92 192.55 125.02 195.56 123.53 130.85 145.47 131.05"/><path class="cls-5" d="M78.4,131.29s-5.21,7.55-3,9,7.18,8.72,4.36,10.55-4.92,9.38-3.09,11.72,5.06,8.25,3.09,10.08-4.5,5.2-4.07,8.29,6,7.6,3.51,9.29" transform="translate(-1.72 0.54)"/><path class="cls-5" d="M135.22,132s5.6,7.25,3.43,8.78-6.7,9.09-3.79,10.76,5.41,9.1,3.71,11.54S134,171.58,136,173.3s4.77,4.95,4.51,8.07-5.63,7.9-3,9.45" transform="translate(-1.72 0.54)"/><line class="cls-6" x1="100.66" y1="185.6" x2="112.84" y2="185.6"/></svg>