<svg id="Layer_1" data-name="Layer 1" xmlns="http://www.w3.org/2000/svg" viewBox="0 0 195.36 199.79"><defs><style>.cls-1{fill:#e7b500;}.cls-1,.cls-2,.cls-3,.cls-4{stroke:#0c0a0a;stroke-miterlimit:10;}.cls-1,.cls-2{stroke-width:4px;}.cls-2,.cls-4{fill:#ffe8db;}.cls-3{fill:none;stroke-width:5px;}.cls-4{stroke-width:3px;}</style></defs><title>maru_tired</title><polygon class="cls-1" points="191.79 58.44 171.54 112.07 164.04 96.7 149.41 113.57 143.41 92.94 129.91 116.2 119.04 87.7 107.04 113.57 93.91 94.07 77.41 112.44 62.79 89.57 37.29 118.07 4.67 62.57 45.54 78.7 52.29 25.07 74.04 64.44 105.02 5.57 119.04 61.82 140.04 29.57 140.04 61.82 174.54 46.82 166.67 69.7 191.79 58.44"/><path class="cls-2" d="M162.8,189.11c-39.13,16.77-73.43,7.84-107.89,1-1.78-.36-3.57-.7-5.36-1-36.28-6.83-11-64.6-11-64.6s.56,1,.28-5.53l25.5-28.5L79,113.35,95.48,95l13.13,19.5,12-25.87,10.87,28.5L145,93.85l6,20.63,14.63-16.87,7.5,15.37c-1.54,4.07.47,9,.47,9C190.74,170.64,162.8,189.11,162.8,189.11Z" transform="translate(-1.57 -0.9)"/><line class="cls-3" x1="61.18" y1="130.72" x2="96.89" y2="130.72"/><path class="cls-4" d="M71.56,140.67H93.13" transform="translate(-1.57 -0.9)"/><line class="cls-3" x1="113.63" y1="130.72" x2="149.35" y2="130.72"/><path class="cls-4" d="M124,140.67h21.57" transform="translate(-1.57 -0.9)"/><circle class="cls-4" cx="101.84" cy="178.98" r="1.57"/></svg>