<svg id="Layer_1" data-name="Layer 1" xmlns="http://www.w3.org/2000/svg" viewBox="0 0 195.36 199.82"><defs><style>.cls-1{fill:#e7b500;}.cls-1,.cls-2,.cls-3,.cls-4{stroke:#0c0a0a;stroke-miterlimit:10;}.cls-1,.cls-2,.cls-4{stroke-width:4px;}.cls-2,.cls-3{fill:#ffe8db;}.cls-3{stroke-width:6px;}.cls-4{fill:#ff7995;}</style></defs><title>maru_happy</title><polygon class="cls-1" points="191.79 58.44 171.54 112.07 164.04 96.7 149.41 113.57 143.41 92.94 129.91 116.2 119.04 87.7 107.04 113.57 93.91 94.07 77.41 112.44 62.79 89.57 37.29 118.07 4.67 62.57 45.54 78.7 52.29 25.07 74.04 64.44 105.02 5.57 119.04 61.82 140.04 29.57 140.04 61.82 174.54 46.82 166.67 69.7 191.79 58.44"/><path class="cls-2" d="M92.22,196.31l24.47,1.45A164,164,0,0,1,92.22,196.31Z"/><path class="cls-2" d="M161.23,188.2a117.32,117.32,0,0,1-44.51,9.56l5.33-22.38H88.58l3.64,20.93c-13.11-1.68-26-4.53-38.88-7.07-1.78-.36-3.57-.7-5.36-1-36.28-6.83-11-64.6-11-64.6s.56,1,.28-5.53l25.5-28.5,14.62,22.87,16.5-18.37L107,113.57,119,87.7l10.87,28.5,13.5-23.26,6,20.63L164,96.7l7.5,15.37c-1.54,4.07.47,9,.47,9C189.17,169.73,161.23,188.2,161.23,188.2Z"/><polyline class="cls-3" points="65.4 120.45 87.84 144.48 62.59 156.92"/><polyline class="cls-3" points="140.4 122.27 116.15 145.08 140.85 159.3"/><polygon class="cls-4" points="122.05 175.38 116.72 197.76 116.69 197.76 92.22 196.31 88.58 175.38 122.05 175.38"/></svg>