<svg id="Layer_1" data-name="Layer 1" xmlns="http://www.w3.org/2000/svg" viewBox="0 0 195.36 199.79"><defs><style>.cls-1{fill:#e7b500;}.cls-1,.cls-2,.cls-3,.cls-4{stroke:#0c0a0a;}.cls-1,.cls-2,.cls-3,.cls-4,.cls-5,.cls-6{stroke-miterlimit:10;}.cls-1,.cls-2{stroke-width:4px;}.cls-2{fill:#ffe8db;}.cls-3,.cls-4,.cls-5{fill:none;}.cls-3{stroke-width:6px;}.cls-4,.cls-5,.cls-6{stroke-width:2px;}.cls-5{stroke:#fd8d8b;}.cls-6{fill:#ff7995;stroke:#000;}</style></defs><title>maru_shy</title><polygon class="cls-1" points="191.79 58.44 171.54 112.07 164.04 96.7 149.41 113.57 143.41 92.94 129.91 116.2 119.04 87.7 107.04 113.57 93.91 94.07 77.41 112.44 62.79 89.57 37.29 118.07 4.67 62.57 45.54 78.7 52.29 25.07 74.04 64.44 105.02 5.57 119.04 61.82 140.04 29.57 140.04 61.82 174.54 46.82 166.67 69.7 191.79 58.44"/><path class="cls-2" d="M159.86,188.11c-39.13,16.77-73.43,7.84-107.89,1-1.78-.36-3.57-.7-5.36-1-36.28-6.83-11-64.6-11-64.6s.56,1,.28-5.53l25.5-28.5L76,112.35,92.54,94l13.13,19.5,12-25.87,10.87,28.5L142,92.85l6,20.63,14.63-16.87,7.5,15.37c-1.54,4.07.47,9,.47,9C187.8,169.64,159.86,188.11,159.86,188.11Z" transform="translate(1.36 0.1)"/><path class="cls-3" d="M58.25,135.5c2.25.38,27.83,0,27.83,0" transform="translate(1.36 0.1)"/><path class="cls-4" d="M58.25,142.57c2.25.37,27.83,0,27.83,0" transform="translate(1.36 0.1)"/><path class="cls-3" d="M112.62,135.5c2.25.38,27.83,0,27.83,0" transform="translate(1.36 0.1)"/><path class="cls-4" d="M112.62,142.49c2.25.37,27.83,0,27.83,0" transform="translate(1.36 0.1)"/><line class="cls-5" x1="61.12" y1="161.53" x2="71.62" y2="153.47"/><line class="cls-5" x1="69.68" y1="161.53" x2="80.18" y2="153.47"/><line class="cls-5" x1="78.24" y1="161.53" x2="88.74" y2="153.47"/><line class="cls-5" x1="86.8" y1="161.53" x2="97.3" y2="153.47"/><line class="cls-5" x1="95.37" y1="161.53" x2="105.87" y2="153.47"/><line class="cls-5" x1="103.93" y1="161.53" x2="114.43" y2="153.47"/><line class="cls-5" x1="112.49" y1="161.53" x2="122.99" y2="153.47"/><line class="cls-5" x1="121.05" y1="161.53" x2="131.55" y2="153.47"/><line class="cls-5" x1="129.61" y1="161.53" x2="140.11" y2="153.47"/><line class="cls-5" x1="138.18" y1="161.53" x2="148.68" y2="153.47"/><ellipse class="cls-6" cx="103" cy="181.1" rx="11.66" ry="7.99"/></svg>